# xmcd
#
# Track frame offsets:
#  150
#  13754
#  29454
#  41841
#  52711
#  62119
#  74971
#  92318
#  101687
#  115799
#  127674
#  138666
#  151148
#  162420
#
# Disc length: 2331 seconds
#
# Revision: 0
# Processed by: cddbd v1.4PL0 Copyright (c) Steve Scherf et al.
# Submitted via: AltoMP3_Maker 3.0
#
DISCID=b909190e
DTITLE=Paul Adkins - Wings Of Gold
DYEAR=1900
DGENRE=
TTITLE0=Broken Stone
TTITLE1=Let The Spirit Descend
TTITLE2=I Saw John
TTITLE3=O'Come Angel Band
TTITLE4=The Poor Man Was Lazarus
TTITLE5=Sinner You Better Get Ready
TTITLE6=Wings Of Gold
TTITLE7=Far Better Than This
TTITLE8=You Can't Stand Alone
TTITLE9=Just A Little More Faith
TTITLE10=The Prince Of My Peace
TTITLE11=I Wouldn't Take Nothing
TTITLE12=Angels Wings
TTITLE13=When My Last Song Is Sung
EXTD=
EXTT0=
EXTT1=
EXTT2=
EXTT3=
EXTT4=
EXTT5=
EXTT6=
EXTT7=
EXTT8=
EXTT9=
EXTT10=
EXTT11=
EXTT12=
EXTT13=
PLAYORDER=
